# xmcd
#
# Track frame offsets: 
#        150
#        21305
#        38387
#        57347
#        73729
#        91790
#        112273
#        127621
#        148818
#
# Disc length: 2244 seconds
#
# Revision: 2
# Processed by: cddbd v1.5.2PL0 Copyright (c) Steve Scherf et al.
# Submitted via: ExactAudioCopy v1.3
#
DISCID=7708c209
DTITLE=陳奕迅 - 七
DYEAR=2003
DGENRE=Pop
TTITLE0=聖誕結（《Lonely Christmas》國語版）
TTITLE1=Shall We Talk（《Shall We Talk》國語版）
TTITLE2=寂寞讓你更快樂（《大開眼戒》國語版）
TTITLE3=K 歌之王
TTITLE4=想哭
TTITLE5=愛是懷疑
TTITLE6=十年
TTITLE7=不如這樣
TTITLE8=謝謝儂
EXTD=
EXTT0=
EXTT1=
EXTT2=
EXTT3=
EXTT4=
EXTT5=
EXTT6=
EXTT7=
EXTT8=
PLAYORDER=
